<svg xmlns="http://www.w3.org/2000/svg" width="3250" height="3440" viewBox="0 0 3250 3440">
  <defs>
    <style>
      .cls-1 {
        fill-rule: evenodd;
      }
    </style>
  </defs>
  <path id="Color_Fill_1" data-name="Color Fill 1" class="cls-1" d="M875,863c2.927,0.684,3.274,1.113,4,4,3.087,0.705,4.254,1.949,5,5,2.927,0.684,3.274,1.113,4,4,2.927,0.684,3.274,1.113,4,4,2.524,0.621,1.628.558,3,2h1v2c2.038,2.517,3.7-.064,5,5,2.927,0.684,3.274,1.113,4,4,5.044,1.282,2.487,2.92,5,5h2q0.5,1.5,1,3c2.071,2.53,3.668-.066,5,5h2q1,2,2,4l3,1q0.5,1.5,1,3c2.076,2.53,3.668-.065,5,5,2.524,0.621,1.628.558,3,2h1v2c2.038,2.517,3.7-.064,5,5,2.927,0.684,3.274,1.113,4,4,5,1.376,2.339,3.589,7,5v2h2v2c4.068,1.205,1.057.685,3,3h1v1l3,1v2l2,1v1h2q0.5,1.5,1,3l4,2q0.5,1.5,1,3h2c2.566,2.105-.093,3.562,5,5v2c1.356,0.683,1.291,1.51,2,2h2v1c1.481,1.358,1.355.5,2,3h2c2.319,1.412-.086,3.558,5,5,0.684,2.927,1.113,3.274,4,4v2h2v2h2c2.32,1.412-.086,3.558,5,5,0.68,2.927,1.11,3.274,4,4v2c1.67,1,3.33,2,5,3v2h1c1.39,1.47.51,1.3,3,2,0.68,2.93,1.11,3.27,4,4,0.68,2.93,1.11,3.27,4,4v2c2.13,1.21,2.18,2.25,5,3,0.68,2.93,1.11,3.27,4,4,0.68,2.93,1.11,3.27,4,4v2c2.13,1.21,2.18,2.25,5,3,0.68,2.93,1.11,3.27,4,4v2c3.49,2.06,4.64,5.82,9,7,0.68,2.93,1.11,3.27,4,4v2c4.87,2.86,7.13,9.41,13,11v2c3.49,2.06,4.64,5.82,9,7,0.68,2.93,1.11,3.27,4,4v2c3.49,2.06,4.64,5.82,9,7,0.68,2.93,1.11,3.27,4,4v2q522.945,522.45,1046,1045,86.49,86.985,173,174,42.99,42.495,86,85,28.995,29.49,58,59,6,5.505,12,11l19,19c2.84,2.84,4.53,6.78,9,8,3.25-5.58,11.35-11.35,16-16,1.33-1.67,2.67-3.33,4-5q15-14.505,30-29,13.005-13.5,26-27,41.49-40.995,83-82,58.5-58.995,117-118,117.99-117.495,236-235,251.97-252.48,504-505,131.49-130.98,263-262,79.485-79.995,159-160,39.495-39,79-78,30-30.5,60-61,6.495-6,13-12,10.995-11.5,22-23h1c3.58-3.576,6.52-8.388,11-11v816q-605.94,604.935-1212,1210-99.99,100.485-200,201-49.995,49.5-100,99-33.495,33.99-67,68-7.5,7.005-15,14l-22,22c-3.07,3.07-5.23,7.7-10,9q-17.505-18-35-36c-3.47-3.47-11.67-9.11-13-14-4.16-1.08-5.41-4.41-8-7l-16-16c-2.6-2.6-5.9-3.84-7-8-5.07-1.33-7.72-6.74-11-10-5.98-5.94-12.81-12.81-20-20-2.8-2.8-6.88-4.55-8-9a10.1,10.1,0,0,1-7-7c-4.03-1.01-4.34-3.9-7-6-4.51-3.56-11.4-11.4-17-17-2.57-2.57-5.96-3.85-7-8-4.43-1.17-3.55-3.76-8-5v-3c-3.57-.89-14.08-11.43-15-15h-2v-1c-2-1.67-4-3.33-6-5v-2c-4-1.06-3.52-3-6-5h-2c0.33-.67.67-1.33,1-2-1-.33-2-0.67-3-1-2.52-1.82-1.93-3.98-6-5v-3h-2c-1.33-1.67-2.67-3.33-4-5h-1v-2c-1-.33-2-0.67-3-1v-1c-1.67-1.33-3.33-2.67-5-4v-2h-2c-1.33-1.67-2.67-3.33-4-5h-1c-0.33-1-.67-2-1-3h-2c-1.33-1.67-2.67-3.33-4-5h-2c-0.97-1.03.98-.94,1-1v-1c-3.04-2.86-6.81-3.14-8-8h-2v-1c-2-1.67-4-3.33-6-5v-2h-2c-1.33-1.67-2.67-3.33-4-5h-1v-2c-1-.33-2-0.67-3-1v-1c-1.67-1.33-3.33-2.67-5-4v-2c-1-.33-2-0.67-3-1v-1c-1.67-1.33-3.33-2.67-5-4v-2h-2v-1c-2-1.67-4-3.33-6-5v-2c-1-.33-2-0.67-3-1v-1c-2.01-1.74-3.19-1.86-4-5h-2v-1c-2-1.67-4-3.33-6-5v-2c-1-.33-2-0.67-3-1v-1c-1.72-1.45-2.43-2.29-5-3v-3h-2c-1.33-1.67-2.67-3.33-4-5h-1v-2c-1-.33-2-0.67-3-1v-1c-1.67-1.33-3.33-2.67-5-4v-2h-2v-1c-2-1.67-4-3.33-6-5v-2h-2c-1.33-1.67-2.67-3.33-4-5h-1v-2c-1-.33-2-0.67-3-1-2.58-1.92-1.69-3.81-6-5v-3h-2c-1.33-1.67-2.67-3.33-4-5h-1v-2c-1-.33-2-0.67-3-1v-1c-1.67-1.33-3.33-2.67-5-4v-2h-2c-1.33-1.67-2.67-3.33-4-5h-1c-0.33-1-.67-2-1-3h-2c-1.33-1.67-2.67-3.33-4-5h-1v-2c-1.67-1-3.33-2-5-3-0.67-1-1.33-2-2-3h-1v-2c-1.33-.67-2.67-1.33-4-2v-1c-1-.67-2-1.33-3-2v-2c-1-.33-2-0.67-3-1v-1c-1.67-1.33-3.33-2.67-5-4v-2h-1c-0.33-.67-0.67-1.33-1-2h-2c-0.67-1-1.33-2-2-3h-2v-1h1v-1c-0.67-.33-1.33-0.67-2-1v-1h-2c-1-1.33-2-2.67-3-4h-2v-3c-2.33-1.67-4.67-3.33-7-5v-2c-0.67-.33-1.33-0.67-2-1v-1h-2c-0.67-1-1.33-2-2-3-0.67-.33-1.33-0.67-2-1v-2c-1-.33-2-0.67-3-1-0.33-.67-0.67-1.33-1-2-1-.67-2-1.33-3-2v-2c-0.67-.33-1.33-0.67-2-1v-1h-2c-1-1.33-2-2.67-3-4h-2c0.33-.67.67-1.33,1-2h-1c-0.33-.67-0.67-1.33-1-2h-2q-3-4.005-6-8h-2c-1.67-2.33-3.33-4.67-5-7h-2c-1-1.33-2-2.67-3-4h-1v-2c-1-1.24-4.64-2.61-6-4v-1c-0.67-.33-1.33-0.67-2-1v-2h-1c-0.33-.67-0.67-1.33-1-2h-2q-3-4.005-6-8h-2c-1.67-2.33-3.33-4.67-5-7-1-.33-2-0.67-3-1-0.67-1-1.33-2-2-3h-1v-2c-2.33-1.67-4.67-3.33-7-5-0.33-1-.67-2-1-3-0.67-.33-1.33-0.67-2-1v-1h-2c-0.67-1-1.33-2-2-3h-2v-3h-1q-3.495-3-7-6v-2h-1c-0.33-.67-0.67-1.33-1-2h-2v-1c-1-.67-2-1.33-3-2v-2c-1-.67-2-1.33-3-2v-1h-2v-1c-0.67-.33-1.33-0.67-2-1v-2h-1c-0.67-1-1.33-2-2-3h-2c-0.67-1-1.33-2-2-3h-1v-2h-1c-0.67-1-1.33-2-2-3-1-.33-2-0.67-3-1v-1c-0.67-.33-1.33-0.67-2-1v-2c-0.67-.33-1.33-0.67-2-1v-1h-2q-3-4.005-6-8h-2v-1c-1-.67-2-1.33-3-2v-2c-1-.67-2-1.33-3-2-0.33-.67-0.67-1.33-1-2h-2v-1c-0.67-.33-1.33-0.67-2-1v-2c-1.29-1.74-5.52-4.36-8-5v-3q-4.005-3-8-6v-2h-1c-0.33-.67-0.67-1.33-1-2h-2v-1c-1-.67-2-1.33-3-2v-2c-1-.67-2-1.33-3-2-0.33-.67-0.67-1.33-1-2h-2c-1.67-2.33-3.33-4.67-5-7h-2c-0.33-.67-0.67-1.33-1-2h-2c0.33-.67.67-1.33,1-2h-1c-0.67-1-1.33-2-2-3h-2v-1a7.929,7.929,0,0,0-4-2v-3q-4.005-3-8-6v-2h-1c-0.33-.67-0.67-1.33-1-2h-2v-1c-1-.67-2-1.33-3-2v-2c-2.33-1.67-4.67-3.33-7-5v-2h-1c-0.67-1-1.33-2-2-3h-2c-0.67-1-1.33-2-2-3h-1v-2c-1-.67-2-1.33-3-2v-1h-2c-0.33-.67-0.67-1.33-1-2h-1v-2c-0.67-.33-1.33-0.67-2-1-0.67-1-1.33-2-2-3-1-.33-2-0.67-3-1v-1c-0.67-.33-1.33-0.67-2-1v-2c-1-.67-2-1.33-3-2v-1h-2c-0.33-1-.67-2-1-3-0.67-.33-1.33-0.67-2-1-2.33-2.43-2.94-4.08-7-5v-3c-2.33-1.67-4.67-3.33-7-5v-2c-1-.67-2-1.33-3-2v-1c-1-.33-2-0.67-3-1-1-1.67-2-3.33-3-5h-1c-0.67-1-1.33-2-2-3h-2v-1c-0.67-.33-1.33-0.67-2-1v-2c-1-.67-2-1.33-3-2-0.33-.67-0.67-1.33-1-2h-2c-0.33-1-.67-2-1-3h-1c-1.75-2.03-1.87-3.14-5-4v-2h-3v-3c-2.33-1.67-4.67-3.33-7-5v-2c-0.67-.33-1.33-0.67-2-1-0.67-1-1.33-2-2-3h-2v-1c-0.67-.33-1.33-0.67-2-1v-2c-1-.67-2-1.33-3-2-0.33-.67-0.67-1.33-1-2h-2c-0.33-1-.67-2-1-3h-1c-1.33-1.67-2.67-3.33-4-5h-3v-3c-2.81-1.65-3.4-4.03-7-5v-2c-2.46-1.44-3.22-3.67-5-5-1-.33-2-0.67-3-1v-2c-1-.67-2-1.33-3-2v-1c-1.33-.67-2.67-1.33-4-2v-2c-0.67-.33-1.33-0.67-2-1-1.33-1.67-2.67-3.33-4-5h-3c0.33-.67.67-1.33,1-2-0.67-.33-1.33-0.67-2-1-2.33-2.43-2.94-4.07-7-5v-3c-2.33-1.67-4.67-3.33-7-5v-2h-1c-1-1.33-2-2.67-3-4-1.33-.67-2.67-1.33-4-2-0.33-1-.67-2-1-3-2.33-1.67-4.67-3.33-7-5v-2c-1.67-1.33-3.33-2.67-5-4v-1h-3c0.33-.67.67-1.33,1-2-2-1.67-4-3.33-6-5v-1h-2v-2c-4.69-2.74-7.26-7.34-11-11-1.67-1-3.33-2-5-3v-2h-1c-1.33-1.67-2.67-3.33-4-5h-2v-2q-22.005-21.495-44-43c-3.87-3.87-11.81-14.58-17-16v-2q-60.495-60-121-120V4301H875V863ZM4125,1864V4301H3532V3271h-1q-44.49,45-89,90l-22,22c-3.07,3.07-7.7,5.23-9,10h-2q-21.495,22.005-43,44c-3.87,3.87-14.58,11.81-16,17h-2c-2.74,4.69-7.34,7.26-11,11-1,1.67-2,3.33-3,5h-2v1c-1.67,1.33-3.33,2.67-5,4v2h-2c-1.53,2.7-4.03,3.84-6,6,0.33,0.67.67,1.33,1,2h-3v1c-1.67,1.33-3.33,2.67-5,4v2q-4.005,3-8,6c-0.33,1-.67,2-1,3h-2v1c-1.67,1.33-3.33,2.67-5,4v2c-1,.33-2,0.67-3,1v1c-2.32,2.02-3.51,1.88-4,6h-2q-3.495,3-7,6c0.33,0.67.67,1.33,1,2h-3c-0.33.67-.67,1.33-1,2h-1c-1.67,2.33-3.33,4.67-5,7h-2v1c-1.33,1-2.67,2-4,3v2c-1,.33-2,0.67-3,1-1.33,1.67-2.67,3.33-4,5h-1v2h-2c-1.89,3.18-4.39,3.3-5,8h-3c-1.44,2.46-3.68,3.22-5,5-0.33,1-.67,2-1,3h-2c-0.67,1-1.33,2-2,3h-1c-1,1.67-2,3.33-3,5h-2c-0.33.67-.67,1.33-1,2-1,.67-2,1.33-3,2v2h-1c-0.33.67-.67,1.33-1,2-3.21,2.41-4.25.54-5,6h-3v2h-2c-1.67,2.33-3.33,4.67-5,7h-2c-0.33.67-.67,1.33-1,2-1,.67-2,1.33-3,2v2h-1c-0.33.67-.67,1.33-1,2-1,.33-2,0.67-3,1-1.67,2.33-3.33,4.67-5,7h-2c-0.33.67-.67,1.33-1,2-1,.67-2,1.33-3,2v2h-1c-0.33.67-.67,1.33-1,2-3.21,2.41-4.25.54-5,6h-2q-3.495,3-7,6c-0.33,1-.67,2-1,3h-2v1c-1,.67-2,1.33-3,2v2h-1c-0.67,1-1.33,2-2,3h-2c-0.67,1-1.33,2-2,3-0.67.33-1.33,0.67-2,1v2c-1.67,1-3.33,2-5,3v1c-0.67.33-1.33,0.67-2,1v2c-1,.67-2,1.33-3,2v1h-2c-0.67,1-1.33,2-2,3h-1v2h-1c-0.33.67-.67,1.33-1,2h-2v1c-1,.67-2,1.33-3,2v2c-1,.67-2,1.33-3,2v1h-2c-0.33.67-.67,1.33-1,2h-1v2q-4.005,3-8,6v3h-2c-1.56,2.58-4.15,3.65-6,6h-1c0.33,0.67.67,1.33,1,2h-2c-0.33.67-.67,1.33-1,2h-2c-1.67,2.33-3.33,4.67-5,7h-2c-0.67,1-1.33,2-2,3h-1c-0.33,1-.67,2-1,3-1,.67-2,1.33-3,2v1h-2v1c-0.67.33-1.33,0.67-2,1v2h-1c-0.67,1-1.33,2-2,3-3.01,2.22-4.41,1.11-5,6h-2c-1.48,2.29-4.46,2.91-6,5v2c-0.67.33-1.33,0.67-2,1v1h-2q-3.495,4.5-7,9h-2c-1.33,2-2.67,4-4,6h-1c-0.33.67-.67,1.33-1,2h-2v1c-0.67.33-1.33,0.67-2,1v2h-1c-0.67,1-1.33,2-2,3h-2c-0.67,1-1.33,2-2,3h-1v2q-4.005,3-8,6v2c-0.67.33-1.33,0.67-2,1v1h-2v1c-1,.67-2,1.33-3,2v2c-1,.67-2,1.33-3,2v1h-2c-0.33.67-.67,1.33-1,2h-1v2h-1c-2.21,2.61-3.66,4.43-7,6v3h-2c-1.83,3.03-4.41,2.87-6,5v2c-1,.67-2,1.33-3,2-0.33.67-.67,1.33-1,2h-2v1c-0.67.33-1.33,0.67-2,1v2c-2.33,1.67-4.67,3.33-7,5v2c-2.33,1.67-4.67,3.33-7,5-0.33,1-.67,2-1,3-1,.67-2,1.33-3,2-0.33.67-.67,1.33-1,2h-2c-1,1.67-2,3.33-3,5-1.33,1-2.67,2-4,3v1h-2c-0.33,1-.67,2-1,3-2.33,1.67-4.67,3.33-7,5v2q-4.005,3-8,6v2c-1,.67-2,1.33-3,2-0.33.67-.67,1.33-1,2h-2c-0.33.67-.67,1.33-1,2h-1c0.33,0.67.67,1.33,1,2h-2c-1,1.33-2,2.67-3,4h-2v1c-0.67.33-1.33,0.67-2,1v2c-1,.67-2,1.33-3,2-0.33.67-.67,1.33-1,2-1,.33-2,0.67-3,1v2c-0.67.33-1.33,0.67-2,1v1c-2,1.33-4,2.67-6,4v2h-1c-0.67,1-1.33,2-2,3h-2v1c-1.66,1.57-1.61.81-2,4h-2c-1,1.33-2,2.67-3,4h-2c-0.33.67-.67,1.33-1,2h-1c0.33,0.67.67,1.33,1,2h-2c-0.67,1-1.33,2-2,3h-2c-1,1.67-2,3.33-3,5-1.33,1-2.67,2-4,3v1h-2c-0.33,1-.67,2-1,3-2.33,1.67-4.67,3.33-7,5v2c-1.67,1.33-3.33,2.67-5,4v1c-1,.33-2,0.67-3,1v2c-1.67,1.33-3.33,2.67-5,4v1h-2c-0.33,1-.67,2-1,3h-1c-1.33,1.67-2.67,3.33-4,5h-2v2c-1.67,1.33-3.33,2.67-5,4v1h-2c-0.33,1-.67,2-1,3h-1c-1.33,1.67-2.67,3.33-4,5h-2v3h-2c-1.33,1.67-2.67,3.33-4,5h-2c-0.33,1-.67,2-1,3h-1c-1.33,1.67-2.67,3.33-4,5h-2v2h-1c-1.67,2-3.33,4-5,6h-2v2c-1.67,1.33-3.33,2.67-5,4v1h-2c-0.33,1-.67,2-1,3h-1c-1.33,1.67-2.67,3.33-4,5h-2v3h-2c-1,1.33-2,2.67-3,4-1,.33-2,0.67-3,1v2c-2,1.67-4,3.33-6,5v1h-2c-0.79,3.14-2,3.27-4,5v1c-1,.33-2,0.67-3,1v2c-2,1.67-4,3.33-6,5v1h-2v2c-1.67,1.33-3.33,2.67-5,4v1h-2c-0.33,1-.67,2-1,3h-1c-1.33,1.67-2.67,3.33-4,5h-2c-0.33,1-.67,2-1,3h-1c-1.33,1.67-2.67,3.33-4,5h-2v2h-1c-1.67,2-3.33,4-5,6h-2v2c-1.67,1.33-3.33,2.67-5,4v1c-1,.33-2,0.67-3,1,0.33,0.67.67,1.33,1,2h-2c-1.33,1.67-2.67,3.33-4,5h-2c-0.33,1-.67,2-1,3h-1c-1.33,1.67-2.67,3.33-4,5h-2v2c-1.67,1.33-3.33,2.67-5,4v1h-2c-0.33,1-.67,2-1,3h-1c-1.33,1.67-2.67,3.33-4,5h-2v3h-2c-1.33,1.67-2.67,3.33-4,5h-2c-1.65,1.37.34,2.69,0,3h-2c-2.49,1.96-1.98,3.96-6,5v2h-1c-1.67,2-3.33,4-5,6h-2c-0.89,3.57-11.43,14.08-15,15v3c-4.43,1.17-3.55,3.76-8,5-1.03,4.15-4.43,5.43-7,8-5.59,5.59-12.45,13.5-17,17-2.77,2.13-2.54,4.82-7,6a10.1,10.1,0,0,1-7,7c-1.11,4.45-5.21,6.21-8,9-7.19,7.19-14.02,14.06-20,20-3.29,3.27-5.93,8.66-11,10-1.08,4.16-4.41,5.41-7,8l-16,16c-2.6,2.6-3.84,5.9-8,7-1.35,5.09-8.54,9.54-12,13v1q-13.005,12.495-26,25c-3.3,3.3-7.07,9.68-12,11q-350.97-351.465-702-703-105.99-105.495-212-211V2574h1c1.55,2.67,3.92,3.92,6,6l15,15q3,3.495,6,7,19.5,19.005,39,38,21.495,22.005,43,44,51.495,51,103,102,116.49,116.985,233,234,118.485,117.99,237,236,57.99,58.5,116,117,25.995,25.5,52,51,19.5,19.995,39,40,3.495,3,7,6,8.505,9,17,18h2q522.45-522.945,1045-1046,86.985-86.49,174-173,42.495-42.99,85-86,29.49-28.995,59-58,5.505-6,11-12l19-19c2.84-2.84,6.78-4.53,8-9,2.93-.68,3.27-1.11,4-4h2c2.06-3.49,5.82-4.64,7-9,2.93-.68,3.27-1.11,4-4h2c2.06-3.49,5.82-4.64,7-9h2c2.86-4.87,9.41-7.13,11-13,2.93-.68,3.27-1.11,4-4h2c2.06-3.49,5.82-4.64,7-9,2.93-.68,3.27-1.11,4-4h2c1.21-2.13,2.25-2.18,3-5,2.93-.68,3.27-1.11,4-4,2.93-.68,3.27-1.11,4-4h2c1.21-2.13,2.25-2.18,3-5,2.93-.68,3.27-1.11,4-4,2.93-.68,3.27-1.11,4-4h2c1-1.67,2-3.33,3-5h2v-1c1.47-1.39,1.3-.51,2-3,2.93-.68,3.27-1.11,4-4h2c0.7-1.39,1.45-1.24,2-2,1.84-2.55-1.09-1.88,3-3v-2h2v-2c2.93-.68,3.27-1.11,4-4h2c0.7-1.39,1.45-1.24,2-2,1.84-2.55-1.09-1.88,3-3,1.09-3.92,2.9-3.31,5-6h1v-2h2c1-1.67,2-3.33,3-5,1-.33,2-0.67,3-1,0.33-1,.67-2,1-3,1-.33,2-0.67,3-1,0.33-1,.67-2,1-3h2c0.33-.67.67-1.33,1-2h1v-2c1-.33,2-0.67,3-1v-1h1v-2c1-.33,2-0.67,3-1v-2h2v-2h2c1.16-2.72,1.78-4.18,5-5,0.68-2.93,1.11-3.27,4-4,0.62-2.52.56-1.63,2-3v-1h2c2.52-2.04-.06-3.7,5-5,1.28-5.04,2.92-2.49,5-5,0.33-1,.67-2,1-3,1-.33,2-0.67,3-1,0.67-1.33,1.33-2.67,2-4h2c1.28-5.04,2.92-2.49,5-5v-2c1-.33,2-0.67,3-1,2.53-2.07-.07-3.67,5-5,0.68-2.93,1.11-3.27,4-4,0.62-2.52.56-1.63,2-3v-1h2c2.52-2.04-.06-3.7,5-5,0.68-2.93,1.11-3.27,4-4,0.68-2.93,1.11-3.27,4-4,0.71-3.09,1.95-4.25,5-5C4121.68,1865.07,4122.11,1864.73,4125,1864Z" transform="translate(-875 -863)"/>
</svg>
